<svg id="Layer_1" data-name="Layer 1" xmlns="http://www.w3.org/2000/svg" viewBox="0 0 512 512"><defs><style>.cls-1{fill:#898989;}</style></defs><title>check-other</title><path class="cls-1" d="M256,512C114.84,512,0,397.16,0,256S114.84,0,256,0,512,114.84,512,256,397.16,512,256,512Zm0-500.62C121.12,11.38,11.38,121.12,11.38,256S121.12,500.62,256,500.62,500.62,390.88,500.62,256,390.88,11.38,256,11.38Z"/><path class="cls-1" d="M233.24,330a5.66,5.66,0,0,1-3.15-1l-68.27-45.51a5.69,5.69,0,0,1,6.31-9.47l64,42.68L342.65,184.09a5.69,5.69,0,1,1,8.74,7.29L237.62,327.91A5.7,5.7,0,0,1,233.24,330Z"/></svg>